<svg width="390" height="574" viewBox="0 0 390 574" fill="none" xmlns="http://www.w3.org/2000/svg">
<g clipPath="url(#clip0_1509_2183)">
<rect width="390" height="574" fill="#C7C9C2"/>
<g clipPath="url(#clip1_1509_2183)">
<path d="M24.2195 84.742H-39.3477V49.6523H126.243V84.742H24.2195Z" stroke="#262723" strokeWidth="3.30464"/>
<path d="M25.9285 125.318L25.9285 49.6523L61.4112 49.6523L61.4111 246.573L25.9285 246.573L25.9285 125.318Z" stroke="#262723" strokeWidth="3.30464"/>
</g>
<path d="M301.181 598L239.765 522.034V598H209V464.156C209 427.62 238.62 398 275.146 398C311.673 398 341.302 427.62 341.302 464.156C341.302 497.03 317.311 524.295 285.893 529.422L341.331 597.991H301.181V598ZM239.774 464.156C239.774 483.701 255.62 499.537 275.156 499.537C294.691 499.537 310.537 483.691 310.537 464.156C310.537 444.62 294.701 428.774 275.156 428.774C255.611 428.774 239.774 444.611 239.774 464.156Z" fill="#262723"/>
<path d="M275.156 432.908C275.156 432.908 271.599 458.271 243.909 464.156C271.599 470.04 275.156 495.403 275.156 495.403C275.156 495.403 278.713 470.04 306.403 464.156C278.713 458.271 275.156 432.908 275.156 432.908Z" fill="#262723"/>
</g>
<defs>
<clipPath id="clip0_1509_2183">
<rect width="390" height="574" fill="white"/>
</clipPath>
<clipPath id="clip1_1509_2183">
<rect width="168.905" height="200" fill="white" transform="translate(-41 48)"/>
</clipPath>
</defs>
</svg>
